<svg xmlns="http://www.w3.org/2000/svg" xmlns:xlink="http://www.w3.org/1999/xlink" width="535" height="282" version="1.1" viewBox="0 0 535 282"><title>Group 2</title><g id="Gründe-für-Webflow" fill="none" fill-rule="evenodd" stroke="none" stroke-width="1"><g id="Desktop-HD-Copy-3" transform="translate(-315.000000, -1457.000000)"><g id="Group" transform="translate(315.000000, 1139.000000)"><g id="Group-2" transform="translate(-83.490737, 271.568186)"><polygon id="Path-3" fill="#009FDB" fill-opacity=".12" stroke="#006DDB" stroke-width="3" points="43.47 293 132.098 255.751 220.727 244.183 309.355 188.985 397.984 152.788 486.612 147.262 575.241 96.386 663.869 0 752.498 293 778.2 631.125 0 656.662"/><path id="Combined-Shape" fill="#006DDB" d="M132.490737,251.431814 C134.699876,251.431814 136.490737,253.222675 136.490737,255.431814 C136.490737,257.640953 134.699876,259.431814 132.490737,259.431814 C130.281598,259.431814 128.490737,257.640953 128.490737,255.431814 C128.490737,253.222675 130.281598,251.431814 132.490737,251.431814 Z M220.490737,239.431814 C222.699876,239.431814 224.490737,241.222675 224.490737,243.431814 C224.490737,245.640953 222.699876,247.431814 220.490737,247.431814 C218.281598,247.431814 216.490737,245.640953 216.490737,243.431814 C216.490737,241.222675 218.281598,239.431814 220.490737,239.431814 Z M309.490737,184.431814 C311.699876,184.431814 313.490737,186.222675 313.490737,188.431814 C313.490737,190.640953 311.699876,192.431814 309.490737,192.431814 C307.281598,192.431814 305.490737,190.640953 305.490737,188.431814 C305.490737,186.222675 307.281598,184.431814 309.490737,184.431814 Z M398.490737,148.431814 C400.699876,148.431814 402.490737,150.222675 402.490737,152.431814 C402.490737,154.640953 400.699876,156.431814 398.490737,156.431814 C396.281598,156.431814 394.490737,154.640953 394.490737,152.431814 C394.490737,150.222675 396.281598,148.431814 398.490737,148.431814 Z M487.490737,142.431814 C489.699876,142.431814 491.490737,144.222675 491.490737,146.431814 C491.490737,148.640953 489.699876,150.431814 487.490737,150.431814 C485.281598,150.431814 483.490737,148.640953 483.490737,146.431814 C483.490737,144.222675 485.281598,142.431814 487.490737,142.431814 Z M575.490737,91.431814 C577.699876,91.431814 579.490737,93.222675 579.490737,95.431814 C579.490737,97.640953 577.699876,99.431814 575.490737,99.431814 C573.281598,99.431814 571.490737,97.640953 571.490737,95.431814 C571.490737,93.222675 573.281598,91.431814 575.490737,91.431814 Z"/></g></g></g></g></svg>