<svg xmlns="http://www.w3.org/2000/svg" xmlns:xlink="http://www.w3.org/1999/xlink" width="404" height="142" version="1.1" viewBox="0 0 404 142"><title>logo-wall</title><g id="Gründe-für-Webflow" fill="none" fill-rule="evenodd" stroke="none" stroke-width="1"><g id="Desktop-HD-Copy-2" fill="#000" transform="translate(-374.000000, -3349.000000)"><g id="Group-13" transform="translate(315.000000, 3023.000000)"><g id="logo-wall" transform="translate(59.000000, 326.000000)"><g id="Group" fill-rule="nonzero" transform="translate(0.000000, 1.000000)"><path id="Path" d="M25,1 C24.0590274,1.96782325 23.7809609,2.48329433 23.1073449,3.94554902 L16.8947971,18 L12.5,8.15343754 L8.15868733,18 L1.89264201,3.9560624 C1.25107099,2.49381415 0.962359791,2.02042234 0,1 L7.94481508,1 C7.34603811,1.49443144 7.03590703,2.13614034 7.03590703,2.9356465 C7.03590703,3.50371667 7.13216586,3.90346331 7.44223164,4.63985056 L9.81605028,10.2153347 L11.5697374,6.06002598 L10.5859904,3.80879139 C10.008568,2.51485378 9.60224334,1.7048278 9.02482094,1 L16.969636,1 C16.1997612,1.49443144 15.8147912,2.13614034 15.8147912,2.9356465 C15.8147912,3.50371667 15.91105,3.90346331 16.2211158,4.63985056 L18.6484188,10.2153347 L21.0435921,4.63985056 C21.3537231,3.90346331 21.4713365,3.50371667 21.4713365,2.96720595 C21.4713365,2.26237815 20.9687531,1.4102729 20.3913307,1.01051982 L25,1.01051982 L25,1 Z"/><path id="Shape" d="M34,13.666688 C33.2471597,16.924489 31.4382101,18 28.8136462,18 C25.8126941,18 23,15.8177101 23,11.7245017 C23,7.78795227 25.488543,5 28.7509361,5 C30.8840369,5 33.8849889,6.09638824 33.8849889,10.742986 L26.7956204,10.742986 C27.2870197,13.2281071 28.9077752,14.512454 31.155887,14.512454 C32.3060614,14.5020314 33.1112027,14.2931955 34,13.666688 Z M26.6596634,9.11405355 L26.6596634,9.41688473 L29.7547445,9.41688473 C29.7547445,7.07793594 29.2423993,6.34699126 28.249,6.34699126 C27.2452555,6.34699126 26.6596634,7.35985795 26.6596634,9.11405355 Z"/><path id="Path" d="M49,5.19780324 C47.0107204,3.25274539 45.0428,2.24176159 43.524076,2.24176159 L43.524076,13.1208853 C43.524076,15.3186908 44.0802644,16.6483429 45.5347801,18 L36.4652199,18 C37.9305132,16.6483429 38.475924,15.3077219 38.475924,13.1208853 L38.475924,2.24176159 C36.9679122,2.24176159 34.9037775,3.25274539 33,5.19780324 L33.962601,0 C34.6150037,0.516483616 35.8128172,0.736264837 37.1497593,0.736264837 L44.8288815,0.736264837 C46.1764706,0.736264837 47.3743494,0.516483616 48.0160398,0 L49,5.19780324 Z"/><path id="Path" d="M54.2976629,18 L46.2915245,18 C47.2782703,16.8952063 47.7043604,16.1658585 47.7043604,14.4174995 L47.7043604,10.5132162 C47.7043604,9.14023746 47.5025463,8.49667213 46.5494248,7.64935709 L46,7.16665025 L52.0438093,5 L52.0438093,8.00332459 C52.6269268,6.26567192 53.5239622,5 55.0152775,5 C56.2262993,5 57,5.81517619 57,7.01649814 C57,8.29292242 56.1702132,9.18319436 55.0152775,9.18319436 C54.7686082,8.62541147 54.1630973,8.36799847 53.6024417,8.36799847 C53.1538897,8.36799847 52.7165687,8.48596574 52.4923612,8.70048752 L52.4923612,14.2673473 C52.4811303,16.1229673 52.8062791,16.6270869 54.2976629,18 Z"/><path id="Shape" d="M70,15.4939697 C69.7104531,16.9663073 68.4559683,18 66.750131,18 C65.3021346,18 64.1973363,17.154234 63.864816,16.1935635 C63.1461239,17.4570651 61.7946213,18 60.3465593,18 C58.3515027,18 57,16.7156531 57,14.9510349 C57,12.8940081 58.5123912,11.4634889 62.0091611,10.6385681 L63.6181115,10.2626508 L63.6181115,8.15344699 C63.6181115,6.83775552 63.1568673,6.30522409 62.3416814,6.30522409 C61.5694036,6.30522409 61.0652514,6.79598835 61.0652514,7.47469849 C61.0652514,8.05945167 61.3548637,8.435369 61.859016,8.9052177 C61.859016,9.65705235 60.6576584,10.4297322 59.4026496,10.4297322 C58.1798708,10.4297322 57.3110336,9.51088004 57.3110336,8.39355067 C57.3110336,6.39920023 59.5742814,5 62.8994195,5 C66.3642869,5 68.1985205,6.43052561 68.1985205,9.61529797 L68.1985205,14.6482037 C68.1985205,15.2851339 68.5843647,15.7028056 69.1850762,15.7028056 C69.5388213,15.7028056 69.8074055,15.6297194 70,15.4939697 Z M63.6181115,15.1389616 L63.6181115,11.3694936 L63.3070124,11.4634889 C62.2772867,11.7662561 61.5694036,12.4240955 61.5694036,13.7397741 C61.5694036,14.8674622 62.0305823,15.5462107 62.7706956,15.5462107 C63.1676107,15.5357881 63.4786443,15.4208836 63.6181115,15.1389616 Z"/><path id="Path" d="M76.8354278,18 L70.4148389,18 C71.0841642,17.3457283 71.5093902,16.3910867 71.5093902,14.4174995 L71.5093902,10.5132162 C71.5093902,9.19390075 71.3392998,8.51815058 70.5531185,7.76732436 L70,7.26320475 L75.9103176,5 L75.9103176,6.87705898 C76.6010665,5.71864139 78.0578716,5 79.5140274,5 C81.7992117,5 83.0645027,6.25494583 83.0645027,8.48596574 L83.0645027,15.2326953 C83.0645027,16.6056084 83.4254579,17.4422171 84,18 L77.7495015,18 C78.3655924,17.3993259 78.5356828,16.5841957 78.5356828,15.9298583 L78.5356828,9.04374864 C78.5356828,8.03550942 78.2065384,7.53132413 77.271041,7.53132413 C76.7503826,7.53132413 76.3141201,7.72443314 76.0271737,8.01403097 L76.0271737,15.9298583 C76.0485973,16.5841957 76.2083005,17.3779131 76.8354278,18 Z"/><path id="Path" d="M85.3286537,16.9558228 L85.3286537,12.946195 C87.0450281,15.1493898 88.8241573,16.3710707 90.4874814,16.3710707 C91.2929417,16.3710707 91.6739988,15.9533999 91.6739988,15.3686478 C91.6739988,14.8048049 91.3666947,14.4811292 90.8161351,14.2722937 L88.0613961,13.2698708 C85.943262,12.4971924 85,11.2128481 85,9.29157477 C85,6.8064202 87.0657307,5 90.0106748,5 C91.5995989,5 93.3580255,5.4489962 94.2372388,6.07550254 L94.2372388,9.50041021 C93.1464709,7.5999821 91.3563434,6.54537589 89.6296176,6.54537589 C88.7504043,6.54537589 88.2949473,6.82730374 88.2949473,7.37030147 C88.2949473,7.91323526 88.622954,8.12207071 89.3643657,8.42490128 L92.6276121,9.71966825 C94.2695866,10.3775063 95,11.7558458 95,13.4265294 C95,16.1726579 92.9769684,18 89.9369218,18 C88.4217507,17.9895774 86.8541761,17.6554151 85.3286537,16.9558228 Z"/><path id="Path" d="M95.3834964,6.28954968 L96.8519564,4.09040408 C98.7266742,1.33048309 100.228932,0 102.758904,0 C104.735014,0 106,0.835675328 106,2.10018405 C106,3.18875439 105.085403,3.9804468 103.165162,3.9804468 C103.165162,2.45204734 102.272636,1.88026949 101.391836,1.88026949 C100.5,1.88026949 99.8219839,2.49603026 99.8219839,3.5076305 C99.8219839,4.20036136 100.20617,4.89309223 101.369764,5.05802815 L104.181841,5.05802815 L103.165162,6.28954968 L101.437359,6.28954968 L101.437359,13.6126843 C101.437359,14.9981595 101.662904,16.229708 103.131364,17.4832075 L103.741096,18 L95,18 C96.0159895,17.0103845 96.6257211,15.8008544 96.6257211,14.0305624 L96.6257211,6.28954968 L95.3834964,6.28954968 Z"/><path id="Shape" d="M115,13.666688 C114.247083,16.924489 112.438549,18 109.813875,18 C106.813062,18 104,15.8177101 104,11.7245017 C104,7.78795227 106.48865,5 109.751292,5 C111.884238,5 114.885051,6.09638824 114.885051,10.742986 L107.795878,10.742986 C108.286967,13.2281071 109.90775,14.512454 112.156284,14.512454 C113.316633,14.5020314 114.11106,14.2931955 115,13.666688 Z M107.659855,9.11405355 L107.659855,9.41688473 L110.754543,9.41688473 C110.754543,7.07793594 110.24238,6.34699126 109.249347,6.34699126 C108.245457,6.34699126 107.659855,7.35985795 107.659855,9.11405355 Z"/><path id="Path" d="M123.297597,18 L115.29106,18 C116.277923,16.8952063 116.703897,16.1658585 116.703897,14.4174995 L116.703897,10.5132162 C116.703897,9.14023746 116.502553,8.49667213 115.549247,7.64935709 L115,7.16665025 L121.043768,5 L121.043768,8.00332459 C121.627257,6.26567192 122.523721,5 124.015316,5 C125.226809,5 126,5.81517619 126,7.01649814 C126,8.29292242 125.170651,9.18319436 124.015316,9.18319436 C123.768771,8.62541147 123.163367,8.36799847 122.602478,8.36799847 C122.153904,8.36799847 121.716972,8.48596574 121.492342,8.70048752 L121.492342,14.2673473 C121.481385,16.1229673 121.806687,16.6270869 123.297597,18 Z"/></g><g id="61844cb232d3a0bbc1bd05e7_rakuten-logo-black" fill-rule="nonzero" transform="translate(164.000000, 0.000000)"><polygon id="Path" points="21.148 25 69 21 17 21"/><path id="Path" d="M80.1062597,4 C79.0974047,4 78.1416796,4.30107476 77.2920917,4.85304516 L77.2920917,4.30107476 L74,4.30107476 L74,17.9498327 L77.2920917,17.9498327 L77.2920917,9.9713279 C77.185832,8.56631235 78.3539541,7.3620133 79.8407329,7.26165505 C81.3275116,7.1612968 82.601771,8.26523759 82.7080307,9.67025314 C82.7080307,9.77061139 82.7080307,9.87096965 82.7080307,9.9713279 L82.7080307,18 L86,18 L86,9.9713279 C86,6.65950553 83.610626,4 80.1062597,4 Z"/><path id="Shape" d="M66.5934912,4 C62.7338474,4 60,7.08392253 60,11.0000115 C60,15.1118813 63.4307807,18 66.9150767,18 C68.6841676,18 70.881998,17.4615509 72.7581193,15.0140024 L69.8098404,13.4475945 C67.5583712,16.4825315 63.7523662,14.965063 63.3235032,11.8810714 L72.8653969,11.8810714 C73.723123,7.18182446 70.3458574,4 66.5934912,4 Z M63.5379347,9.28671611 C64.2348681,6.20280509 68.8449604,6.00700122 69.4882549,9.28671611 L63.5379347,9.28671611 Z"/><path id="Path" d="M53.7837514,13.9682914 C53.6757019,16.6137975 55.7837265,18.8961566 58.5946337,19 C58.6485961,19 58.7026832,19 58.7567702,19 C59.8918508,18.9480173 61.027056,18.636853 62,18.118124 L59.8378884,15.3169138 C59.5134906,15.5244786 59.1351304,15.6800607 58.7026832,15.6800607 C57.7838262,15.6800607 57.0810683,14.9538889 57.1351553,14.0720128 C57.1351553,14.0201521 57.1351553,14.0201521 57.1351553,13.9682914 L57.1351553,7.89911249 L60.0000249,7.89911249 L60.0000249,4.52737354 L57.1351553,4.52737354 L57.1351553,1 L53.7837514,1 L53.7837514,4.52737354 L52,4.52737354 L52,7.89911249 L53.7837514,7.89911249 L53.7837514,13.9682914 Z"/><path id="Path" d="M44.8937403,19 C45.9025953,19 46.8583204,18.6989958 47.7079083,18.1469187 L47.7079083,18.6487104 L51,18.6487104 L51,5 L47.7079083,5 L47.7079083,13.0286671 C47.814168,14.4337074 46.6459234,15.6379603 45.1592671,15.738413 C43.6724884,15.8387478 42.398229,14.7348296 42.2919693,13.3297893 C42.2919693,13.2294546 42.2919693,13.1290018 42.2919693,13.0286671 L42.2919693,5 L39,5 L39,13.0286671 C39,16.3405394 41.389374,19 44.8937403,19 Z"/><polygon id="Path" points="31.137 12.446 35.718 18 40 18 33.876 10.81 39.154 4.463 34.871 4.463 31.137 9.174 31.137 0 28 0 28 18 31.137 18"/><path id="Shape" d="M22.6966579,17.0699201 L22.6966579,17.6573087 L26,17.6573087 L26,4.34265678 L22.6966579,4.34265678 L22.6966579,4.9300684 C21.7909781,4.34265678 20.725364,4 19.6065614,4 C15.8769737,4 13,7.13287349 13,11.0000115 C13,14.8671841 15.8237851,18 19.6065614,18 C20.725364,18 21.7909781,17.6573087 22.6966579,17.0699201 Z M16.3565307,11.0489625 C16.3565307,8.94405933 17.6884561,7.2797264 19.55325,7.2797264 C21.4180439,7.2797264 22.6966579,8.94405933 22.6966579,11.0489625 C22.6966579,13.1538426 21.4180439,14.8182446 19.55325,14.8182446 C17.6884561,14.8182446 16.3565307,13.1538426 16.3565307,11.0489625 Z"/><path id="Shape" d="M11.5630068,6.84999384 C11.5630068,3.59999399 8.86670253,1 5.49631622,1 L0,1 L0,18 L3.37038631,18 L3.37038631,12.7499604 L5.70371964,12.7499604 L9.80003586,18 L14,18 L9.02225809,11.649988 C10.6296735,10.549992 11.5630068,8.74999863 11.5630068,6.84999384 Z M5.54816409,9.5499957 L3.37038631,9.5499957 L3.37038631,4.24999161 L5.54816409,4.24999161 C7.05187178,4.24999161 8.29632818,5.44999897 8.29632818,6.89999366 C8.29632818,8.34998834 7.05187178,9.5499957 5.54816409,9.5499957 Z"/></g><g id="6175bbf01080df16079fd283_logo-zendesk" fill-rule="nonzero" transform="translate(-0.000000, 59.000000)"><path id="Shape" d="M66.5013662,16.4102152 C67.826769,16.4383796 69.1094132,15.9438267 70.0679193,15.0348552 L71.8376901,16.9254444 C70.6683793,18.1170654 69.0520569,18.9996607 66.5329754,18.9996607 C62.2168818,18.9996607 59.4313635,16.1593065 59.4313635,12.315429 C59.4140071,11.4539569 59.5680302,10.5975254 59.884582,9.79514269 C60.2011339,8.99275995 60.6740076,8.26019578 61.2760768,7.63936145 C61.878261,7.01852712 62.5979164,6.52160484 63.3937788,6.17703838 C64.1896412,5.83246074 65.0461932,5.64701178 65.9144694,5.6312755 L66.1536649,5.6312755 C70.4381494,5.6312755 72.8670009,8.86585265 72.6548169,13.3548283 L62.5148129,13.3548283 C62.8760774,15.2184824 64.1943538,16.4057447 66.5013662,16.4057447 L66.5013662,16.4102152 Z M69.5894134,11.1999188 C69.3184938,9.46169669 68.2710221,8.18040791 66.1717109,8.18040791 C65.2898715,8.12928735 64.4213654,8.41280866 63.7423996,8.97350312 C63.0633189,9.53419758 62.6244682,10.3301204 62.5148129,11.1999188 L69.5894134,11.1999188 Z"/><polygon id="Path" points="0 16.272 7.797 8.414 .185 8.414 .185 5.945 11.409 5.945 11.409 8.463 3.612 16.321 11.512 16.321 11.512 18.785 0 18.785"/><path id="Shape" d="M20.2666355,16.4102152 C21.5921533,16.4383796 22.8747974,15.9438267 23.8333036,15.0348552 L25.6030744,16.9254444 C24.4337636,18.1170654 22.8174411,18.9996607 20.2982447,18.9996607 C15.982266,18.9996607 13.1967477,16.1593065 13.1967477,12.315429 C13.1793914,11.4547393 13.3330696,10.5989784 13.6490467,9.79717679 C13.9650238,8.99537521 14.437093,8.26320222 15.0382427,7.64247965 C15.6395073,7.02175708 16.3580133,6.52465598 17.1528412,6.1795754 C17.947784,5.83448366 18.8033016,5.64817412 19.6707732,5.6312755 L19.9100836,5.6312755 C24.1944531,5.6312755 26.6233047,8.86585265 26.4111207,13.3548283 L16.2801972,13.3548283 C16.6414617,15.2184824 17.9597381,16.4057447 20.2666355,16.4057447 L20.2666355,16.4102152 Z M23.3546827,11.1999188 C23.083878,9.46169669 22.0364063,8.18040791 19.9370951,8.18040791 C19.0552557,8.12928735 18.1867496,8.41280866 17.5076689,8.97350312 C16.8287031,9.53419758 16.3898524,10.3301204 16.2801972,11.1999188 L23.3546827,11.1999188 Z"/><path id="Shape" d="M43.2372192,12.3290641 C43.2372192,8.2208439 46.3298641,5.65378464 49.7338884,5.65378464 C50.5506703,5.64331242 51.359866,5.81032042 52.1046939,6.14311819 C52.8494069,6.4759048 53.5118209,6.96640069 54.0453843,7.58019393 L54.0453843,0 L56.7992935,0 L56.7992935,18.7488637 L54.0453843,18.7488637 L54.0453843,16.9568499 C53.5219359,17.5963599 52.8600965,18.1109184 52.1090617,18.4621907 C51.3581419,18.8134629 50.5369922,18.9926196 49.706762,18.9865194 C48.850095,18.9798786 48.0029682,18.8060865 47.2140024,18.4747082 C46.4250365,18.1434415 45.709519,17.6611826 45.1083694,17.0554252 C44.5071047,16.4497795 44.0320471,15.7324822 43.7103228,14.9445504 C43.3884836,14.1566187 43.2261847,13.3135876 43.2327364,12.4634037 C43.2327364,12.4096455 43.2327364,12.3603579 43.2327364,12.3110702 L43.2372192,12.3290641 Z M54.1988327,12.284247 C54.1815913,11.1969012 53.7319359,10.1603407 52.9479126,9.40050624 C52.1638894,8.64067181 51.1090614,8.21912274 50.0131989,8.22768382 C48.9173364,8.23625607 47.86929,8.6742567 47.0973356,9.44626217 C46.3254963,10.2182564 45.8923926,11.261724 45.8923926,12.3491815 C45.8923926,13.4366391 46.3254963,14.4800619 47.0973356,15.2521232 C47.86929,16.0240728 48.9173364,16.4620734 50.0131989,16.4706792 C51.1090614,16.479285 52.1638894,16.0577136 52.9479126,15.2978344 C53.7319359,14.5380671 54.1815913,13.5014618 54.1988327,12.414116 L54.1988327,12.284247 Z"/><path id="Path" d="M74.4382659,16.0250787 L76.9303358,14.7393529 C77.2609107,15.3221989 77.7455085,15.8045695 78.3317157,16.134495 C78.9180377,16.4644205 79.5839001,16.629495 80.2576934,16.6119481 C81.8152802,16.6119481 82.6233265,15.818987 82.6233265,14.9185096 C82.6233265,13.8926336 81.1155099,13.659607 79.4630954,13.3281169 C77.2553934,12.8800575 74.948381,12.1454369 74.948381,9.50217738 C74.948381,7.47272227 76.8942438,5.60007117 79.964245,5.62247972 C82.3795333,5.62247972 84.1719478,6.57224482 85.1876954,8.11337225 L82.9078094,9.37225246 C82.5880392,8.90248868 82.1527516,8.5214203 81.6432112,8.26506866 C81.1336708,8.0087282 80.5666591,7.88558733 79.9958543,7.9072806 C78.5150491,7.9072806 77.7610258,8.62856784 77.7610258,9.44840802 C77.7610258,10.371294 78.957463,10.631155 80.8265442,11.0388678 C82.9574646,11.4868154 85.3727529,12.1946128 85.3727529,14.8647514 C85.3727529,16.6567652 83.815281,19.0267074 80.1221761,18.9997725 C77.4134394,18.9997725 75.5217146,17.9201383 74.4337831,16.0206081"/><polygon id="Path" points="92.858 13.046 90.673 15.407 90.673 18.749 87.919 18.749 87.919 0 90.673 0 90.673 12.275 96.519 5.905 99.874 5.905 94.804 11.402 100 18.749 96.885 18.749"/><path id="Path" d="M34.9119286,5.64940352 C31.6388239,5.64940352 28.898363,7.75501418 28.898363,11.24943 L28.898363,18.7489755 L31.706525,18.7489755 L31.706525,11.5809201 C31.706525,9.47534299 32.925491,8.2164516 35.0067562,8.2164516 C37.0880214,8.2164516 38.1264126,9.47534299 38.1264126,11.5809201 L38.1264126,18.7489755 L40.9210114,18.7489755 L40.9210114,11.2449594 C40.9210114,7.75053247 38.1805506,5.64492181 34.9074458,5.64492181"/></g><g id="6175bbefb5b59f72174999dc_logo-dell" fill-rule="nonzero" transform="translate(179.000000, 63.000000)"><path id="Shape" d="M23.6060715,0.01090251 L14.3971148,7.021224 C13.9643001,5.296932 12.9640979,3.764259 11.5539681,2.664756 C10.143927,1.565253 8.40431154,0.961452 6.6092525,0.94851 L0,0.94851 L0,17.06238 L6.6092525,17.06238 C8.41388332,17.0865 10.1721367,16.49646 11.5897181,15.39108 C13.007477,14.28561 13.998542,12.73185 14.3971148,10.98972 L23.6060715,18 L32.8149394,10.98972 L32.8149394,17.06238 L43.2024935,17.06238 L43.2024935,13.79169 L36.3509091,13.79169 L36.3509091,0.937611 L32.5726732,0.937611 L32.5726732,7.010289 L23.8374265,14.02056 L21.9537641,12.38526 L26.20571,9.11448 L30.6889222,5.614776 L28.0892836,3.510594 L19.3541256,10.28106 L17.4704633,8.645661 L26.20571,2.104173 L23.6060715,0 L23.6060715,0.01090251 Z M3.53594839,4.208355 L6.36694188,4.208355 C6.9527543,4.20948 7.53144332,4.33593 8.06332023,4.579038 C8.60357133,4.824972 9.09005547,5.173119 9.4952815,5.603877 C9.92179786,6.057261 10.2581851,6.5862 10.4867014,7.162911 C10.9564194,8.388639 10.9564194,9.74214 10.4867014,10.96794 C10.2729997,11.54286 9.95577369,12.07485 9.55037024,12.53781 C9.15641034,12.99294 8.67285363,13.36392 8.12938236,13.62816 C7.56956189,13.89564 6.95556639,14.03361 6.33387976,14.031563 L3.53594839,14.031563 L3.53594839,4.219254 L3.53594839,4.208355 Z M54.989,13.79169 L54.989,17.06238 L44.6124459,17.06238 L44.6124459,0.937611 L48.3907706,0.937611 L48.3907706,13.79169 L55,13.79169 L54.989,13.79169 Z"/></g><g id="5f68c62e7e087c31a302df7b_upwork-black-webclip" fill-rule="nonzero" transform="translate(318.000000, 59.000000)"><path id="Shape" d="M55.6461313,6.01028744 C52.8219308,5.98478347 50.2621555,7.66437714 49.1665714,10.2618433 C48.0709872,12.8593095 48.6567309,15.8598498 50.6492644,17.8571117 C52.6417979,19.8543736 55.646216,20.4525147 58.2543487,19.3711865 C60.8624815,18.2898582 62.5574163,15.7433718 62.5448084,12.9252648 C62.5489246,11.0954701 61.8244602,9.33896012 60.5307194,8.04214929 C59.2369787,6.74533845 57.479939,6.01445553 55.6461313,6.01028744 Z M55.7013201,17.0632375 C54.6242004,17.077073 53.5869029,16.6573906 52.8236157,15.898941 C51.5238488,14.6164768 51.2499833,12.6225617 52.1560247,11.038453 C53.062066,9.45434421 54.9218566,8.67545228 56.6895627,9.13977888 C58.4572687,9.60410548 59.6916519,11.1957497 59.6985699,13.0196672 C59.6494496,15.2170739 57.8871925,16.9927476 55.6855519,17.0632375 L55.7013201,17.0632375 Z M70.9570957,9.28290469 C70.011253,9.29531156 69.1093485,9.68325939 68.4509165,10.3609199 C67.7924845,11.0385804 67.4318007,11.9500929 67.4486615,12.8937973 L67.4486615,19.4940998 L64.4448111,19.4940998 L64.4053905,6.39576399 L67.4092409,6.39576399 L67.4092409,8.44901664 C68.2826561,7.1759381 69.7186837,6.40235601 71.2645765,6.37216339 L72.139714,6.37216339 L72.139714,9.28290469 L70.9570957,9.28290469 Z M40.9974331,6.51376702 L43.2444078,15.4977307 L45.6096443,6.49016641 L48.6134947,6.49016641 L44.9000733,19.6278366 L41.9829483,19.6278366 L39.6177118,10.4708018 L37.3392006,19.667171 L34.4141914,19.667171 L30.4721305,6.57670197 L33.3971397,6.57670197 L36.0304364,15.5370651 L38.1354969,6.52950076 L40.9974331,6.51376702 Z M80.946278,12.3195159 C83.0922497,11.0683008 84.4102814,8.77353342 84.4074074,6.2934947 L81.403557,6.2934947 C81.4298847,8.4946319 79.6673468,10.3025558 77.4614961,10.3370651 L77.0278695,10.3370651 L76.996333,0 L73.9924826,0 L74.1107444,19.4626324 L77.1145948,19.4626324 L77.1145948,13.2950076 L77.4614961,13.2950076 C77.7872401,13.2593607 78.1011208,13.4284854 78.2499083,13.7198185 L82.4836817,19.4390318 L86,19.4390318 L80.946278,12.3195159 Z"/><path id="Shape" d="M23.5341034,6.16762481 C20.270077,6.16762481 17.7944628,8.33101362 16.8641364,11.7609682 C15.3773554,9.45128123 14.2129337,6.95020936 13.403007,4.32677761 L9.97341401,4.32677761 L9.97341401,13.4051437 C9.97341401,15.2038708 8.51205961,16.6620272 6.70938761,16.6620272 C4.9067156,16.6620272 3.4453612,15.2038708 3.4453612,13.4051437 L3.4453612,4.32677761 L0,4.38971256 L0.0394206087,13.4680787 C0.0331331889,15.2539697 0.739728388,16.9688663 2.00310043,18.233902 C3.26647248,19.4989377 4.98264175,20.2099959 6.77246058,20.2099849 C8.56169524,20.185184 10.2672514,19.449903 11.5116683,18.1668688 C12.7560851,16.8838347 13.4367441,15.1588503 13.403007,13.3736762 L13.403007,11.8003026 C14.1241487,13.2347665 14.965487,14.6058576 15.9180418,15.898941 L13.8366337,26 L17.3450678,25.9606657 L18.8588192,18.6680787 C20.2716333,19.5654001 21.9146092,20.0353559 23.5892923,20.02118 C27.3410755,19.8793045 30.30427,16.7944554 30.2873257,13.0482335 C30.2702354,9.30201151 27.2791373,6.24409171 23.5262193,6.13615734 L23.5341034,6.16762481 Z M23.5814081,16.5204236 C22.1525261,16.4829489 20.7823048,15.9455274 19.7103044,15.002118 L20.0493216,13.6332829 L20.0493216,13.5546142 C20.3016135,12.0992436 21.0584892,9.6211705 23.636597,9.6211705 C25.5302418,9.61677711 27.0725143,11.1381072 27.0898423,13.027534 C27.0093148,14.9253461 25.4835587,16.4443421 23.5814081,16.5204236 L23.5814081,16.5204236 Z"/></g><g id="5ff749001fcb42370cabd39f_mural-logo" transform="translate(0.000000, 122.000000)"><path id="Shape" d="M64.6133096,0 C64.9496462,0 65.2247346,0.269461578 65.2247346,0.598802098 L65.2247346,14.6107633 L59.7232296,19.9999741 L45.4191582,19.9999741 C45.0830856,19.9999741 44.8079972,19.7305278 44.8079972,19.4011873 L44.8079972,0.598802098 C44.8079972,0.269461578 45.0830856,0 45.4191582,0 L64.6133096,0 Z M56.2072719,6.94616759 C56.0237916,6.88629925 55.5961109,6.82640505 55.2903984,6.82640505 L52.1421932,6.85635215 C52.019961,6.85635215 51.8977288,6.97611469 51.8977288,7.09587723 L51.8977288,13.0838749 C51.8977288,13.2036375 52.019961,13.3234 52.1421932,13.3234 L53.6704917,13.3234 C53.7927239,13.3234 53.9149561,13.2036375 53.9149561,13.0838749 L53.9149561,11.5569349 L54.7708455,11.5569349 L55.8405753,13.2036375 C55.9015594,13.2934788 55.9628075,13.3234 56.0544156,13.3234 L58.0716429,13.3234 C58.1635151,13.3234 58.2244992,13.2036375 58.1635151,13.1437691 C57.8271785,12.664719 56.910305,11.2575415 56.879681,11.1976731 C56.917433,11.1698466 56.9525451,11.142046 56.9863371,11.1151246 C57.0615773,11.0551011 57.1315374,10.999474 57.2160175,10.958148 C58.2244992,10.299467 58.3467314,8.95215781 57.7659304,8.02400459 C57.3992338,7.45513899 56.879681,7.09587723 56.2072719,6.94616759 Z M55.2903984,9.94017937 L53.9149561,9.94017937 L53.9149561,8.44318641 L55.2291503,8.44318641 C55.3820065,8.44318641 55.5348628,8.47310765 55.687719,8.56292309 C55.9321834,8.71263273 56.0544156,8.86234237 56.0544156,9.19168289 C56.0544156,9.49107631 55.9321834,9.73060139 55.657095,9.85036393 C55.5348628,9.91023227 55.4126306,9.94017937 55.2903984,9.94017937 Z"/><path id="Shape" d="M20.0194918,20 C20.2334377,20 20.4168124,19.8203433 20.4168124,19.6107653 L20.3862412,0.389221532 C20.3862412,0.179640966 20.2028665,0 19.9889205,0 L0.397332267,0 C0.183383676,0 0,0.179640966 0,0.389221532 L0,19.6107653 C0,19.8203433 0.183383676,20 0.397332267,20 L20.0194918,20 Z M14.2123271,13.0539537 L14.2123271,7.03598303 C14.2123271,6.91622049 14.0900685,6.82640505 13.9983811,6.82640505 L12.5618492,6.82640505 C12.5007331,6.82640505 12.4090457,6.85635215 12.3784745,6.91622049 L10.1778461,9.85036393 L8.0078153,6.91622049 C7.9466728,6.85635215 7.8855567,6.82640505 7.8244142,6.82640505 L6.41847989,6.82640505 C6.29622129,6.82640505 6.20453394,6.91622049 6.20453394,7.03598303 L6.20453394,13.0838749 C6.20453394,13.2036375 6.29622129,13.2934788 6.41847989,13.2934788 L8.0078153,13.2934788 C8.1300739,13.2934788 8.22176125,13.2036375 8.22176125,13.0838749 L8.22176125,9.94017937 C8.27543253,10.0277966 8.91558078,10.9053915 9.46174488,11.6540949 C9.84861111,12.1844275 10.1883005,12.6501075 10.2389886,12.7246132 C10.6957621,12.0640701 11.1680325,11.433888 11.6337292,10.812421 C11.8224103,10.5606378 12.0100091,10.3103028 12.1950998,10.0599419 L12.1950998,13.0539537 C12.1950998,13.1737162 12.2867871,13.2635317 12.4090457,13.2635317 L13.9983811,13.2635317 C14.1206397,13.2635317 14.2123271,13.1737162 14.2123271,13.0539537 Z"/><path id="Shape" d="M42.4235453,19.9999741 C42.6373856,19.9999741 42.8208659,19.8203433 42.8208659,19.6107653 L42.7902419,19.6107653 L42.7902419,0.389221532 C42.7902419,0.179640966 42.6067616,0 42.3929212,0 L22.8012643,0 C22.5873184,0 22.4039437,0.179640966 22.4039437,0.389221532 L22.4039437,19.6107653 C22.4039437,19.8203433 22.5873184,19.9999741 22.8012643,19.9999741 L42.4235453,19.9999741 Z M36.0967749,7.06593013 C36.0967749,6.91622049 35.9745427,6.82640505 35.8523105,6.82640505 L35.8523105,6.85635215 L34.2627639,6.85635215 C34.1099077,6.85635215 34.0182995,6.97611469 34.0182995,7.09587723 L34.0182995,10.299467 C34.0182995,10.4790979 34.0182995,10.6587288 33.9573154,10.8383855 C33.8348192,11.3473569 33.4987467,11.6467762 32.9791938,11.7365916 C32.5818732,11.8264051 32.2151766,11.79646 31.848216,11.6168291 C31.5731275,11.4671194 31.4202713,11.2575415 31.2980391,10.9880693 C31.1758069,10.6886759 31.1451828,10.3293882 31.1451828,10.0000477 L31.1451828,7.09587723 C31.1451828,6.94616759 31.0229506,6.85635215 30.9007184,6.85635215 L29.4030439,6.85635215 C29.2808117,6.85635215 29.1585795,6.97611469 29.1585795,7.09587723 L29.1585795,10.0299948 L29.1585795,10.0300207 C29.1585795,10.3294141 29.1585795,10.6587546 29.2198276,10.958148 C29.3114358,11.5569349 29.5559002,12.0659321 29.9532209,12.4850881 C30.5646459,13.113822 31.3592872,13.3832942 32.2151766,13.4431626 C32.6124972,13.4731097 33.0401779,13.4431626 33.4374986,13.3832942 C34.1099077,13.2635317 34.7213327,13.0240066 35.2102615,12.5449564 C35.8216865,11.9761167 36.0661509,11.2275944 36.0967749,10.4491508 L36.0967749,7.06593013 Z"/><path id="Shape" d="M87.1985466,19.9999741 C87.412651,19.9999741 87.5961313,19.8203433 87.5961313,19.6107653 L87.5961313,0.389221532 C87.5961313,0.179640966 87.412651,0 87.1985466,0 L67.6070745,0 C67.3932342,0 67.2097539,0.179640966 67.2097539,0.389221532 L67.2097539,19.6107653 C67.2097539,19.8203433 67.3932342,19.9999741 67.6070745,19.9999741 L87.1985466,19.9999741 Z M81.299985,13.0838749 L78.3656202,6.82640505 L76.5318732,6.82640505 L73.5671483,13.0838749 C73.5061642,13.1737162 73.5671483,13.2934788 73.6893805,13.2934788 L75.4621434,13.2934788 C75.5843756,13.2934788 75.6759838,13.2335846 75.7372319,13.113822 L76.0123203,12.455141 L78.854813,12.455141 L79.1299014,13.113822 C79.1908855,13.2335846 79.2827577,13.2934788 79.4049899,13.2934788 L81.1777528,13.2934788 C81.2693609,13.2934788 81.330345,13.1737162 81.299985,13.0838749 Z M77.3877626,9.10186745 L78.0907957,10.8982538 L76.6847294,10.8982538 L77.3877626,9.10186745 Z"/><path id="Shape" d="M109.602679,19.9999741 C109.81652,19.9999741 110,19.8203433 110,19.6107653 L110,0.389221532 C110,0.179640966 109.81652,0 109.602679,0 L90.0109432,0 C89.7971029,0 89.6136226,0.179640966 89.6136226,0.389221532 L89.6136226,19.6107653 C89.6136226,19.8203433 89.7971029,19.9999741 90.0109432,19.9999741 L109.602679,19.9999741 Z M99.2726064,11.6168291 L99.2726064,7.06593013 C99.2726064,6.91622049 99.1807343,6.82640505 98.997518,6.82640505 L97.4998435,6.82640505 C97.3776113,6.82640505 97.2553791,6.94616759 97.2553791,7.06593013 L97.2553791,13.0539537 C97.2553791,13.1737162 97.3776113,13.2934788 97.4998435,13.2934788 L102.053851,13.2934788 C102.176083,13.2934788 102.298315,13.1737162 102.298315,13.0539537 L102.298315,11.8563542 C102.298315,11.7365916 102.176083,11.6168291 102.053851,11.6168291 L99.2726064,11.6168291 Z"/><polygon id="Path" fill-rule="nonzero" points="59.722 20 54.588 20 59.875 14.79 65.041 14.79"/><path id="Path" fill-rule="nonzero" d="M65.2239426,14.6107374 L60.3335986,14.6107374 C59.9975261,14.6107374 59.7224376,14.8802096 59.7224376,15.2095501 L59.7224376,19.9999483 L65.2239426,14.6107374 Z"/></g><g id="5f9880bc2c1d2a36c4cd639b_hellosign" fill-rule="nonzero" transform="translate(147.000000, 123.000000)"><path id="Shape" d="M18.5756098,0.178700059 L8.86563193,13.4691233 L0,0.205495267 C0.474944568,-0.0356616071 17.7312639,-0.0892520236 18.5756098,0.178700059 Z M5.62017738,3.15296817 L8.97117517,8.19046731 L12.6388027,3.15296817 L5.62017738,3.15296817 Z"/><path id="Shape" d="M65.1201774,8.99432356 C65.04102,5.83248899 67.2046563,2.75104005 71.2416851,2.77783526 C75.278714,2.80463046 77.2576497,5.75210337 77.2312639,9.04791398 C77.2312639,12.6116767 74.6454545,15.2376071 71.1097561,15.2376071 C67.5740576,15.2376071 65.1201774,12.6652671 65.1201774,8.99432356 Z M74.1441242,8.96752835 C74.1441242,8.72637148 74.1441242,8.4584194 74.1177384,8.21726252 C74.0121951,6.87750211 73.0359202,5.75210337 71.7430155,5.45735608 C70.5292683,5.2161992 69.3155211,5.77889858 68.7086475,6.8507069 C67.943459,8.16367211 67.943459,9.82497502 68.7086475,11.1379402 C69.4738359,12.531291 71.2152993,13.0136048 72.5873614,12.2365438 C72.9831486,12.0221821 73.2997783,11.7006396 73.5372506,11.3523019 C73.9858093,10.6288313 74.1968958,9.79817981 74.1441242,8.96752835 Z"/><path id="Path" d="M118.815299,15.2911975 C116.440576,13.2815569 114.197783,11.0575546 111.717517,8.91393794 L111.717517,14.9428598 L108.920621,14.9428598 C108.894235,14.7017029 108.867849,14.460546 108.841463,14.192594 C108.841463,10.6824217 108.841463,7.14545419 108.841463,3.63528192 C108.894235,3.34053463 108.973392,3.07258255 109.105322,2.80463046 C109.36918,2.9118113 109.633038,3.04578734 109.87051,3.2333538 C111.796674,4.97504233 113.696452,6.74352607 115.622616,8.51200981 C115.754545,8.64598585 115.939246,8.75316669 116.203104,8.96752835 L116.203104,3.04578734 L119,3.04578734 L119,15.1304262 L118.815299,15.2911975 Z"/><path id="Path" d="M103.300443,10.6556265 L101.05765,10.6556265 L101.05765,8.27085294 L105.96541,8.27085294 C106.018182,8.43162419 106.044568,8.59239544 106.044568,8.72637148 C106.044568,10.334084 106.070953,11.9417965 106.044568,13.549509 C106.044568,13.7906658 105.912639,14.0050275 105.727938,14.1657987 C103.564302,15.4519687 100.266075,15.746716 97.9968958,14.192594 C95.9915743,12.8260383 95.1472284,10.8431929 95.3583149,8.43162419 C95.5694013,5.8592842 96.9414634,4.03721004 99.3689579,3.17976338 C101.374279,2.45629276 103.353215,2.72424484 105.279379,3.60848671 C105.437694,3.68887233 105.569623,3.79605317 105.701552,3.903234 L104.566962,6.10044107 C103.933703,5.88607941 103.274058,5.69851295 102.614412,5.56453691 C101.189579,5.35017524 99.8439024,5.56453691 98.9467849,6.90429732 C98.1815965,8.02969607 98.1815965,9.95895106 98.9467849,11.111145 C99.7119734,12.263339 101.110421,12.8528335 102.614412,12.531291 C103.062971,12.4509054 103.379601,12.2365438 103.326829,11.7006396 C103.274058,11.4058923 103.300443,11.0843498 103.300443,10.6556265 Z"/><polygon id="Path" points="22.533 3.046 25.304 3.046 25.304 7.547 29.684 7.547 29.684 3.046 32.507 3.046 32.507 14.943 29.71 14.943 29.71 10.307 25.33 10.307 25.33 14.943 22.533 14.943"/><polygon id="Path" points="35.832 3.019 43.299 3.019 43.299 5.618 38.682 5.618 38.682 7.601 42.877 7.601 42.877 10.093 38.682 10.093 38.682 12.317 43.325 12.317 43.325 14.943 35.832 14.943"/><path id="Path" d="M87.0203991,3.79605317 L86.3343681,6.31480274 L85.516408,5.88607941 C84.8831486,5.51094649 84.1443459,5.32338004 83.4055432,5.37697045 C82.9569845,5.43056087 82.5348115,5.56453691 82.4292683,6.07364587 C82.3237251,6.58275482 82.5875831,6.93109253 83.0097561,7.14545419 C83.431929,7.35981586 83.9332594,7.60097273 84.3818182,7.8153344 C84.6984479,7.97610565 85.0150776,8.11008169 85.3317073,8.27085294 C86.9148559,9.20868523 87.4953437,10.3072888 87.2050998,12.1025677 C86.9412417,13.683485 85.9385809,14.6213173 84.4345898,15.0232454 C82.4820399,15.5323544 80.7405765,14.9428598 78.9991131,13.9782323 L79.7906874,11.3523019 C80.0545455,11.4862779 80.2392461,11.5934588 80.4239468,11.7006396 C81.2946785,12.2365438 82.2973392,12.4777006 83.3,12.4777006 C83.7749446,12.4509054 84.1707317,12.2901342 84.3026608,11.8078204 C84.4609756,11.3523019 84.2762749,10.8431929 83.854102,10.6288313 C83.3263858,10.3072888 82.745898,10.0929271 82.2181818,9.79817981 C81.7168514,9.55702293 81.2419069,9.26227564 80.7933481,8.96752835 C79.1574279,7.8153344 78.9463415,4.78747587 81.1099778,3.47451067 C82.6931264,2.48308797 85.3844789,2.5902688 87.0203991,3.79605317 Z"/><polygon id="Path" points="49.183 12.371 53.906 12.371 53.906 14.97 46.413 14.97 46.413 3.046 49.183 3.046"/><polygon id="Path" points="58.999 12.344 63.616 12.344 63.616 14.943 56.202 14.943 56.202 3.046 58.999 3.046"/><path id="Path" d="M15.8314856,14.9428598 L15.8314856,17.8099471 C15.356541,18.0243087 3.61485588,18.0778991 2.8232816,17.8635375 L2.8232816,14.9428598 L15.8314856,14.9428598 Z"/><polygon id="Path" points="92.72 3.046 92.72 14.943 89.949 14.943 89.949 3.046"/></g><g id="6175bbf0add4534dad027cb5_logo-lattice" transform="translate(306.000000, 121.000000)"><path id="Shape" d="M8.37640111,13.0791456 L11.079654,15.9243163 L8.82459505,18.3983255 C8.09332563,19.2005582 6.90747308,19.2005582 6.17620366,18.3983255 L0.548449883,12.2244043 C-0.182816628,11.4218715 -0.182816628,10.1211564 0.548449883,9.31894368 C1.27994846,8.51670098 2.46556796,8.51670098 3.19683739,9.31894368 L7.5003945,14.0402046 L8.37640111,13.0791456 Z M9.07910372,12.3082181 L11.4733943,9.68158366 L14.1216012,12.5869642 L11.9168497,15.0057643 L9.07910372,12.3082181 Z"/><path id="Shape" d="M19.9126421,14.9510553 L17.0909176,12.2357061 L23.721776,4.96129289 C24.4530357,4.15905019 25.6386261,4.15905019 26.3701771,4.96129289 C27.1014368,5.76352558 27.1014368,7.06422073 26.3701771,7.86671347 L19.9126421,14.9510553 Z M19.0350528,15.9137145 L16.7704878,18.3980254 C16.0390338,19.2002581 14.8534435,19.2002581 14.1221838,18.3980254 L4.5215817,7.8656833 C3.79031227,7.06319056 3.79031227,5.76250541 4.5215817,4.96026272 C5.25285112,4.15775998 6.43846091,4.15775998 7.16996337,4.96026272 L15.4463358,14.0399046 L16.377233,13.0187357 L19.0350528,15.9137145 Z"/><path id="Shape" d="M15.8434745,11.569596 L18.4793498,8.65064313 L23.3918304,14.0399046 L27.6944262,9.3196938 C28.4259772,8.5174511 29.6115676,8.5174511 30.3428273,9.3196938 C31.074087,10.1221565 31.074087,11.4228717 30.3428273,12.2251044 L24.7159823,18.3980254 C23.9847226,19.2002581 22.7991323,19.2002581 22.0678726,18.3980254 L15.8434745,11.569596 Z M14.7514885,10.3715978 L8.4942416,3.50704234 C7.76297218,2.70479965 7.76297218,1.4041145 8.4942416,0.601871804 C9.22574407,-0.200623935 10.411315,-0.200623935 11.1426718,0.601871804 L17.4063953,7.47358844 L14.7514885,10.3715978 Z"/><path id="Path" d="M22.3970414,0.602901975 C21.6657817,-0.199338722 20.4801913,-0.199338722 19.7487374,0.602901975 L11.4732972,9.68148364 L14.1216012,12.5869642 L22.3970414,3.50833256 C23.1283011,2.70582982 23.1283011,1.40514467 22.3970414,0.602901975 Z"/><path id="Shape" d="M40.5858038,2.02175666 L38.2828843,2.02175666 L38.2828843,16.8620714 L46.7205785,16.8620714 L46.7205785,14.6208006 L40.5858038,14.6208006 L40.5858038,2.02175666 Z M51.7045247,6.48393474 C53.1047059,6.48393474 54.044245,7.10984828 54.5601371,7.87710519 L54.6706368,6.68583814 L56.6603118,6.68583814 L56.6603118,16.8620714 L54.6706368,16.8620714 L54.5601371,15.6707743 C54.044245,16.4380012 53.1047059,17.0639048 51.7045247,17.0639048 C49.1806057,17.0639048 47.4672771,14.822734 47.4672771,11.7739298 C47.4672771,8.70492211 49.1806057,6.48393474 51.7045247,6.48393474 Z M52.1836158,8.62415875 C50.7465366,8.62415875 49.7148496,9.85581248 49.7148496,11.7739298 C49.7148496,13.692047 50.7465366,14.9237508 52.1836158,14.9237508 C53.2889045,14.9237508 53.9521943,14.2776439 54.4496373,13.4094003 L54.4496373,10.1384592 C53.9521943,9.27026563 53.2889045,8.62415875 52.1836158,8.62415875 Z M62.2338489,3.27359373 L60.0230773,3.27359373 L60.0230773,6.68583814 L58.2729478,6.68583814 L58.2729478,8.74530879 L60.0230773,8.74530879 L60.0230773,13.2680769 C60.0230773,15.7313843 61.3680087,17.0639048 63.4866324,17.0639048 C64.4077225,17.0639048 65.0894613,16.781258 65.5500063,16.4582046 L64.9604155,14.5602906 C64.684069,14.7420207 64.2787738,14.8833441 63.68928,14.8833441 C62.8233427,14.8833441 62.2338489,14.2776439 62.2338489,13.2478736 L62.2338489,8.74530879 L65.0341143,8.74530879 L65.0341143,6.68583814 L62.2338489,6.68583814 L62.2338489,3.27359373 Z M69.8523109,3.27359373 L67.6415392,3.27359373 L67.6415392,6.68583814 L65.8913127,6.68583814 L65.8913127,8.74530879 L67.6415392,8.74530879 L67.6415392,13.2680769 C67.6415392,15.7313843 68.9863735,17.0639048 71.1050944,17.0639048 C72.0261845,17.0639048 72.7078262,16.781258 73.1684683,16.4582046 L72.5788774,14.5602906 C72.302531,14.7420207 71.8972358,14.8833441 71.307742,14.8833441 C70.4418047,14.8833441 69.8523109,14.2776439 69.8523109,13.2478736 L69.8523109,8.74530879 L72.6525763,8.74530879 L72.6525763,6.68583814 L69.8523109,6.68583814 L69.8523109,3.27359373 Z M76.8628301,6.68583814 L74.6520584,6.68583814 L74.6520584,16.8620714 L76.8628301,16.8620714 L76.8628301,6.68583814 Z M75.7574442,1.94099331 C74.9836548,1.94099331 74.3940639,2.56690684 74.3940639,3.43512045 C74.3940639,4.30332405 74.9836548,4.92923758 75.7574442,4.92923758 C76.5495856,4.92923758 77.1390794,4.30332405 77.1390794,3.43512045 C77.1390794,2.56690684 76.5495856,1.94099331 75.7574442,1.94099331 Z M83.5416558,6.48393474 C80.6861405,6.48393474 78.7885162,8.70492211 78.7885162,11.7739298 C78.7885162,14.822734 80.7044924,17.0639048 83.5601048,17.0639048 C85.2365354,17.0639048 86.507768,16.2360678 87.3368073,14.822734 L85.7524275,13.4700103 C85.3102343,14.2776439 84.5917918,14.9438541 83.5784567,14.9438541 C81.938827,14.9438541 81.0360887,13.5507236 81.0360887,11.7739298 C81.0360887,9.97693251 81.9020261,8.60397542 83.5601048,8.60397542 C84.5917918,8.60397542 85.2734334,9.25008229 85.6971776,10.0577459 L87.2999093,8.72511545 C86.47087,7.31176167 85.2365354,6.48393474 83.5416558,6.48393474 Z M92.7444977,6.48393474 C95.6000129,6.48393474 97,8.82607215 97,11.6730131 L97,12.5209533 L90.4415782,12.5209533 C90.496828,14.1362205 91.3812144,15.0246674 92.9286963,15.0246674 C94.0156331,15.0246674 94.8078716,14.4996806 95.2316157,13.8535737 L96.7611341,15.2266008 C95.8395585,16.4380012 94.6235759,17.0639048 92.9102473,17.0639048 C90.036283,17.0639048 88.1940057,14.8429374 88.1940057,11.7941331 C88.1940057,8.72511545 90.073181,6.48393474 92.7444977,6.48393474 Z M92.7075997,8.42225536 C91.3995663,8.42225536 90.515277,9.37122232 90.4415782,10.7845661 L94.8263206,10.7845661 C94.7709736,9.39141566 94.0340821,8.42225536 92.7075997,8.42225536 Z"/></g><g id="6175bfd8a5e66921c78f52db_logo-discord" fill-rule="nonzero" transform="translate(299.000000, 1.000000)"><path id="Shape" d="M22.2313588,1.67499838 C20.5325373,0.892500944 18.7160076,0.323814362 16.8169655,0 C16.5837042,0.415118715 16.3112068,0.97346361 16.1233766,1.41762494 C14.1046511,1.11874307 12.1044214,1.11874307 10.1227771,1.41762494 C9.93494696,0.97346361 9.65625439,0.415118715 9.42101775,0 C7.51984778,0.323814362 5.70128896,0.894590531 4.00244943,1.67914214 C0.575888347,6.77670884 -0.352996868,11.7476341 0.111446817,16.6479827 C2.3841201,18.3188559 4.58662641,19.3338111 6.75195277,19.9979635 C7.2865864,19.2736027 7.76339851,18.5035542 8.17417376,17.6920682 C7.39185031,17.3993488 6.64254978,17.0382752 5.93455033,16.618941 C6.12238051,16.4819667 6.30610751,16.3387946 6.48361241,16.1913724 C10.8019107,18.1797567 15.4938043,18.1797567 19.7604763,16.1913724 C19.940136,16.3387946 20.1237463,16.4819667 20.3096012,16.618941 C19.5994918,17.0403116 18.8481711,17.4014738 18.0657848,17.6941046 C18.4765511,18.5035542 18.951334,19.2757277 19.4880686,20 C21.655478,19.3358476 23.8599686,18.3208924 26.1326957,16.6479827 C26.6776007,10.9672263 25.2017153,6.04195316 22.2313588,1.67499838 Z M8.76244494,13.6343724 C7.46617432,13.6343724 6.40309324,12.4429533 6.40309324,10.9921065 C6.40309324,9.54134836 7.44347667,8.34789279 8.76244494,8.34789279 C10.081476,8.34789279 11.1445302,9.53922335 11.1218146,10.9921065 C11.1238796,12.4429533 10.081476,13.6343724 8.76244494,13.6343724 Z M17.4816437,13.6343724 C16.1853282,13.6343724 15.1222741,12.4429533 15.1222741,10.9921065 C15.1222741,9.54134836 16.1626126,8.34789279 17.4816437,8.34789279 C18.8006748,8.34789279 19.863729,9.53922335 19.8410134,10.9921065 C19.8410134,12.4429533 18.8006748,13.6343724 17.4816437,13.6343724 Z"/><path id="Shape" d="M35.2664317,5.10217884 L40.9016063,5.10217884 C42.2599633,5.10217884 43.4075948,5.31595428 44.3490801,5.74145099 C45.2880514,6.16691227 45.9920554,6.76053224 46.458668,7.52018588 C46.9249214,8.2798041 47.1602478,9.14946214 47.1602478,10.1291777 C47.1602478,11.0880859 46.9166611,11.9577439 46.4295776,12.7360268 C45.9424941,13.5164346 45.2013191,14.1329515 44.2044365,14.5874368 C43.2075539,15.0420107 41.9729207,15.2702716 40.4972148,15.2702716 L35.2664317,15.2702716 L35.2664317,5.10217884 Z M40.4393035,12.6862663 C41.3537635,12.6862663 42.0578573,12.4558804 42.5488913,11.9971451 C43.0402845,11.5363733 43.286026,10.9095855 43.286026,10.1146568 C43.286026,9.37781156 43.0669506,8.79042494 42.6294284,8.35037196 C42.191996,7.9103721 41.5292931,7.68830914 40.6436541,7.68830914 L38.8808158,7.68830914 L38.8808158,12.6862663 L40.4393035,12.6862663 Z"/><path id="Path" d="M55.596983,15.2578757 C54.8166618,15.0544951 54.1126578,14.7597393 53.4873952,14.3716603 L53.4873952,11.9598689 C53.9601131,12.3272291 54.5936359,12.6303078 55.3883227,12.8689281 C56.1830096,13.1056005 56.9511201,13.2238924 57.694001,13.2238924 C58.0408404,13.2238924 58.3031023,13.1782048 58.4804276,13.0868296 C58.6581121,12.9955429 58.7469992,12.885574 58.7469992,12.7589591 C58.7469992,12.6136619 58.699503,12.493245 58.6023556,12.3956719 C58.5052083,12.2981873 58.3174679,12.2171715 58.0390447,12.1487287 L56.3050274,11.7563998 C55.3120953,11.5239774 54.6080015,11.2023049 54.1892444,10.7892572 C53.7701281,10.3782459 53.5614678,9.83858334 53.5614678,9.17026947 C53.5614678,8.60785165 53.7431926,8.12008346 54.1108621,7.70287428 C54.4760176,7.2857005 54.9962317,6.96397485 55.6710556,6.73773272 C56.3463285,6.50943641 57.1345508,6.39528826 58.0408404,6.39528826 C58.8498928,6.39528826 59.590978,6.48244886 60.2662508,6.65680547 C60.9411645,6.83116207 61.4983701,7.05322503 61.9423568,7.32511934 L61.9423568,9.60616099 C61.487955,9.33424897 60.9677409,9.12050895 60.3734541,8.95856591 C59.780963,8.79874788 59.1722209,8.71994563 58.5444443,8.71994563 C57.6382445,8.71994563 57.1863567,8.8756022 57.1863567,9.18479033 C57.1863567,9.33017605 57.2565686,9.43802002 57.3968127,9.51071288 C57.5371466,9.58331719 57.7950989,9.65804651 58.1688737,9.7369373 L59.6136936,9.99848992 C60.5572439,10.1624694 61.2609786,10.4509388 61.7232814,10.8618615 C62.1859434,11.2728727 62.4168704,11.8809782 62.4168704,12.6862663 C62.4168704,13.5684087 62.0351945,14.2678893 61.2692388,14.7867445 C60.5032832,15.3056883 59.4176032,15.5651159 58.0098645,15.5651159 C57.182047,15.5629909 56.3773043,15.4613449 55.596983,15.2578757 Z"/><path id="Path" d="M65.8269936,14.9526719 C64.9995353,14.5458222 64.3739136,13.9937637 63.9569521,13.2964081 C63.5399907,12.598964 63.3295347,11.8143947 63.3295347,10.9427002 C63.3295347,10.0710057 63.5460961,9.29059784 63.9795779,8.6035131 C64.4131496,7.91654346 65.0488272,7.37689861 65.8870598,6.9846228 C66.7249332,6.592347 67.7261255,6.39723618 68.8924324,6.39723618 C70.3371625,6.39723618 71.5366,6.70235139 72.490296,7.31254639 L72.490296,9.97130757 C72.1539615,9.73888522 71.7615113,9.55002546 71.3135741,9.40472829 C70.8657266,9.25943111 70.3868135,9.18673826 69.8749494,9.18673826 C68.9791647,9.18673826 68.2793805,9.35071776 67.7736218,9.68071323 C67.2677732,10.0107972 67.0141306,10.4404023 67.0141306,10.9737784 C67.0141306,11.4968836 67.259513,11.9244522 67.7509062,12.2606456 C68.2423891,12.5948025 68.9542942,12.7629435 69.889315,12.7629435 C70.3702931,12.7629435 70.8451659,12.6923756 71.3135741,12.5533649 C71.7801866,12.4122292 72.1827825,12.2399268 72.519117,12.0364576 L72.519117,14.6080671 C71.4603725,15.2473392 70.232114,15.5669753 68.8345211,15.5669753 C67.6580685,15.5629024 66.6547214,15.3594332 65.8269936,14.9526719 Z"/><path id="Shape" d="M76.0948037,14.9526719 C75.2608809,14.5459107 74.6252032,13.9896908 74.1873219,13.2818873 C73.7498895,12.5740837 73.5290184,11.7854415 73.5290184,10.9136585 C73.5290184,10.041964 73.7477346,9.26359258 74.1873219,8.58075785 C74.6269989,7.89791426 75.258726,7.36241316 76.0886086,6.97428112 C76.9160669,6.58614907 77.9050485,6.39312784 79.0505252,6.39312784 C80.1963611,6.39312784 81.1848937,6.58614907 82.0127112,6.97428112 C82.8405287,7.36241316 83.4722558,7.8937705 83.9057377,8.57243491 C84.3393093,9.25119672 84.5558707,10.0294796 84.5558707,10.911622 C84.5558707,11.7833165 84.3393093,12.5720473 83.9057377,13.2797623 C83.4722558,13.9875658 82.8383739,14.5437857 82.004451,14.9506355 C81.1705281,15.3574853 80.1858563,15.5608659 79.0487295,15.5608659 C77.9111538,15.5608659 76.926482,15.3595217 76.0948037,14.9526719 Z M80.4851994,12.3748646 C80.8363484,12.0220253 81.0136738,11.5550556 81.0136738,10.9738669 C81.0136738,10.3927668 80.8381441,9.92986999 80.4851994,9.58739012 C80.1344095,9.24287379 79.655227,9.07057135 79.0487295,9.07057135 C78.431368,9.07057135 77.948235,9.24287379 77.5952903,9.58739012 C77.2445004,9.93199499 77.0689707,10.3927668 77.0689707,10.9738669 C77.0689707,11.5550556 77.2445004,12.0220253 77.5952903,12.3748646 C77.9464393,12.7277038 78.431368,12.9062042 79.0487295,12.9062042 C79.655227,12.9041677 80.1344095,12.7277038 80.4851994,12.3748646 Z"/><path id="Path" d="M93.2381679,6.93289666 L93.2381679,10.0711828 C92.8709473,9.82831249 92.3959848,9.70789557 91.8078932,9.70789557 C91.0375381,9.70789557 90.4431615,9.94244293 90.0301506,10.4115376 C89.615344,10.8806324 89.4087488,11.6111911 89.4087488,12.5991411 L89.4087488,15.2724851 L85.8687067,15.2724851 L85.8687067,6.77309633 L89.3367412,6.77309633 L89.3367412,9.47547322 C89.5282526,8.48752328 89.8407043,7.7589921 90.2698765,7.2878078 C90.697253,6.81874851 91.2503285,6.58421886 91.9228179,6.58421886 C92.4327966,6.58421886 92.8709473,6.7004566 93.2381679,6.93289666 Z"/><path id="Shape" d="M105,4.81165533 L105,15.2724851 L101.45888,15.2724851 L101.45888,13.3691895 C101.159896,14.0852275 100.705585,14.631088 100.095047,15.0047346 C99.4836109,15.3762561 98.7285193,15.5630794 97.8324652,15.5630794 C97.0315832,15.5630794 96.3339539,15.3679332 95.7377817,14.9756928 C95.1407116,14.5833639 94.6810125,14.0458263 94.3568887,13.3629916 C94.0345606,12.6800683 93.871152,11.9079834 93.871152,11.0446119 C93.8612756,10.1541465 94.0327649,9.35505631 94.3856199,8.64725277 C94.7366792,7.93952007 95.2340879,7.38744394 95.873357,6.99098896 C96.5135239,6.5945694 97.2443736,6.39531483 98.0641104,6.39531483 C99.7502723,6.39531483 100.881563,7.13212467 101.45888,8.60369019 L101.45888,4.81165533 L105,4.81165533 Z M100.930945,12.3168697 C101.292778,11.9640304 101.47145,11.5053836 101.47145,10.9449137 C101.47145,10.4032147 101.29637,9.96112526 100.94531,9.62280686 C100.594251,9.28448846 100.113004,9.11431102 99.5087507,9.11431102 C98.9125785,9.11431102 98.4358203,9.28652492 98.078476,9.63112979 C97.7211318,9.97564612 97.5433576,10.421897 97.5433576,10.9739555 C97.5433576,11.5261024 97.7211318,11.9765148 98.078476,12.3251926 C98.4358203,12.6738704 98.9062935,12.8482093 99.4943851,12.8482093 C100.090557,12.8461728 100.570009,12.6697089 100.930945,12.3168697 Z"/><path id="Path" d="M50.143623,7.67781693 C51.118239,7.67781693 51.9086161,6.96413422 51.9086161,6.08378033 C51.9086161,5.20342645 51.118239,4.48977915 50.143623,4.48977915 C49.1687377,4.48977915 48.3786299,5.20342645 48.3786299,6.08378033 C48.3786299,6.96413422 49.1687377,7.67781693 50.143623,7.67781693 Z"/><path id="Path" d="M48.376924,8.77590408 C49.4583841,9.24499879 50.8002206,9.26571758 51.9064613,8.77590408 L51.9064613,15.3180842 L48.376924,15.3180842 L48.376924,8.77590408 Z"/></g></g></g></g></g></svg>