<?xml version="1.0" encoding="UTF-8"?>
<svg width="535px" height="155px" viewBox="0 0 535 155" version="1.1" xmlns="http://www.w3.org/2000/svg" xmlns:xlink="http://www.w3.org/1999/xlink">
    <title>Combined Shape</title>
    <defs>
        <linearGradient x1="81.6837672%" y1="47.9217955%" x2="20.1163231%" y2="52.2987936%" id="linearGradient-1">
            <stop stop-color="#FE815E" offset="0%"></stop>
            <stop stop-color="#B94CDB" offset="100%"></stop>
        </linearGradient>
        <path d="M485.942066,77 C486.777666,77 487.6298,77.1849 488.498466,77.5547 C489.367133,77.9244333 490.1178,78.4208333 490.750466,79.0439 L490.750466,79.0439 L523.185466,110.85089 C524.590133,112.21197 525.300466,113.824567 525.320947,115.68868 C525.333133,117.5528 524.6228,119.176337 523.185466,120.55929 L523.185466,120.55929 L490.750466,152.351 C490.1178,152.9842 489.367133,153.485833 488.498466,153.8559 C487.6298,154.2259 486.777666,154.4109 485.942066,154.4109 C484.0454,154.4109 482.4946,153.805767 481.289666,152.5955 C480.084666,151.385233 479.482166,149.831767 479.482166,147.9351 C479.482166,146.1035 480.109333,144.5761 481.363666,143.3529 L481.363666,143.3529 L495.217466,129.9511 L504.403466,121.81738 L491.561466,122.21258 L6.5238,122.17901 C4.6602,122.17901 3.107,121.568787 1.8642,120.34834 C0.6214,119.127887 0,117.574667 0,115.68868 C0,113.802187 0.6214,112.24312 1.8642,111.01148 C3.107,109.779847 4.6602,109.16403 6.5238,109.16403 L6.5238,109.16403 L491.561466,109.1976 L504.403466,109.5928 L495.217466,101.4591 L481.363666,88.0581 C480.109333,86.8343 479.482166,85.3066333 479.482166,83.4751 C479.482166,81.6008333 480.084666,80.0530667 481.289666,78.8318 C482.4946,77.6106 484.0454,77 485.942066,77 Z M435.378881,0 C437.275547,0 438.826347,0.6106 440.031281,1.8318 C441.236281,3.05306667 441.838781,4.60083333 441.838781,6.4751 C441.838781,8.30663333 441.211614,9.8343 439.957281,11.0581 L426.103481,24.4591 L416.917481,32.5928 L429.759481,32.1976 L914.797147,32.16403 C916.660747,32.16403 918.213947,32.7798467 919.456747,34.01148 C920.699547,35.24312 921.320947,36.8021867 921.320947,38.68868 C921.320947,40.5746667 920.699547,42.1278867 919.456747,43.34834 C918.213947,44.5687867 916.660747,45.17901 914.797147,45.17901 L429.759481,45.21258 L416.917481,44.81738 L426.103481,52.9511 L439.957281,66.3529 C441.211614,67.5761 441.838781,69.1035 441.838781,70.9351 C441.838781,72.8317667 441.236281,74.3852333 440.031281,75.5955 C438.826347,76.8057667 437.275547,77.4109 435.378881,77.4109 C434.543281,77.4109 433.691147,77.2259 432.822481,76.8559 C431.953814,76.4858333 431.203147,75.9842 430.570481,75.351 L398.135481,43.55929 C396.698147,42.1763367 395.987814,40.5528 396,38.68868 C396.020481,36.8245667 396.730814,35.21197 398.135481,33.85089 L430.570481,2.0439 C431.203147,1.42083333 431.953814,0.924433333 432.822481,0.5547 C433.691147,0.1849 434.543281,0 435.378881,0 Z" id="path-2"></path>
    </defs>
    <g id="Gründe-für-Webflow" stroke="none" stroke-width="1" fill="none" fill-rule="evenodd">
        <g id="Desktop-HD-Copy-3" transform="translate(-877.000000, -2794.000000)" fill-rule="nonzero">
            <g id="Group-15" transform="translate(877.000000, 2395.000000)">
                <g id="Group-16" transform="translate(-192.753973, 52.000000)">
                    <g id="Combined-Shape" transform="translate(0.000000, 347.141800)">
                        <use fill="#000000" xlink:href="#path-2"></use>
                        <use fill="url(#linearGradient-1)" xlink:href="#path-2"></use>
                    </g>
                </g>
            </g>
        </g>
    </g>
</svg>