<?xml version="1.0" encoding="UTF-8"?>
<svg width="125px" height="152px" viewBox="0 0 125 152" version="1.1" xmlns="http://www.w3.org/2000/svg" xmlns:xlink="http://www.w3.org/1999/xlink">
    <title>Group 25</title>
    <defs>
        <linearGradient x1="15.5686995%" y1="1.51788304e-16%" x2="83.814491%" y2="85.3424263%" id="linearGradient-1">
            <stop stop-color="#672AF8" offset="0%"></stop>
            <stop stop-color="#D23884" offset="100%"></stop>
        </linearGradient>
        <linearGradient x1="50%" y1="2.12724273%" x2="50%" y2="98.0622463%" id="linearGradient-2">
            <stop stop-color="#FFFFFF" stop-opacity="0.595088505" offset="0%"></stop>
            <stop stop-color="#FFFFFF" stop-opacity="0.222164554" offset="100%"></stop>
        </linearGradient>
        <path d="M62.461745,32 C68.8885906,32 74.0912752,34.2141527 78.0697987,38.6424581 C82.0483221,43.0707635 84.0375839,48.9242706 84.0375839,56.2029795 L84.0375839,65.4413408 C88.6791946,65.7467412 91,68.6225947 91,74.0689013 L91,105.372439 C91,111.124146 88.2966443,114 82.8899329,114 L42.033557,114 C36.6778523,114 34,111.124146 34,105.372439 L34,74.0689013 C34,68.6225947 36.295302,65.7467412 40.885906,65.4413408 L40.885906,56.2029795 C40.885906,48.9242706 42.8751678,43.0707635 46.8536913,38.6424581 C50.8322148,34.2141527 56.0348993,32 62.461745,32 Z M62.461745,39.9404097 C58.4832215,39.9404097 55.2697987,41.3528864 52.8214765,44.1778399 C50.3731544,47.0027933 49.1489933,50.7057728 49.1489933,55.2867784 L49.1489933,65.3649907 L75.7744966,65.3649907 L75.7744966,55.2867784 C75.7744966,50.7057728 74.5630872,47.0027933 72.1402685,44.1778399 C69.7174497,41.3528864 66.4912752,39.9404097 62.461745,39.9404097 Z" id="path-3"></path>
        <filter x="-54.4%" y="-35.4%" width="208.8%" height="175.6%" filterUnits="objectBoundingBox" id="filter-4">
            <feOffset dx="0" dy="2" in="SourceAlpha" result="shadowOffsetOuter1"></feOffset>
            <feGaussianBlur stdDeviation="10" in="shadowOffsetOuter1" result="shadowBlurOuter1"></feGaussianBlur>
            <feComposite in="shadowBlurOuter1" in2="SourceAlpha" operator="out" result="shadowBlurOuter1"></feComposite>
            <feColorMatrix values="0 0 0 0 0   0 0 0 0 0   0 0 0 0 0  0 0 0 0.0782615822 0" type="matrix" in="shadowBlurOuter1"></feColorMatrix>
        </filter>
    </defs>
    <g id="Gründe-für-Webflow" stroke="none" stroke-width="1" fill="none" fill-rule="evenodd">
        <g id="Desktop-HD-Copy-3" transform="translate(-375.000000, -2167.000000)" fill-rule="nonzero">
            <g id="Group-6" transform="translate(315.000000, 1767.000000)">
                <g id="􀞚" transform="translate(12.000000, 341.000000)">
                    <g id="Group-25" transform="translate(48.000000, 59.000000)">
                        <path d="M62.5,0.5 C63.5384809,0.5 64.5769519,0.599050529 65.6154279,0.796992387 C66.6657995,0.997201642 67.6912221,1.2473291 68.691504,1.54750578 C70.4719224,2.1584444 72.8983914,3.01024399 75.9709165,4.10288882 C79.0511203,5.19826434 82.4622541,6.43374863 86.2043199,7.80933649 L86.2043199,7.80933649 L97.4359825,11.9381091 C101.178414,13.3138316 104.602613,14.5876471 107.708577,15.7595588 C110.807015,16.9286311 113.24518,17.8942672 115.029192,18.6593235 C118.160542,19.9525209 120.539224,21.4382882 122.155254,23.1300739 C123.743347,24.7926139 124.5,27.5193763 124.5,31.2716298 L124.5,31.2716298 L124.5,88.9215292 C124.5,95.7356642 123.545139,101.705241 121.628278,106.828822 C119.715793,111.940706 116.580458,116.710914 112.227346,121.14258 C107.844596,125.604417 101.991116,130.115154 94.66982,134.678287 C87.3181505,139.26035 78.1983999,144.402232 67.3097879,150.104891 C66.3794958,150.594857 65.486301,150.951204 64.6293717,151.17171 C63.7872473,151.388406 63.0776747,151.5 62.5,151.5 C61.9223253,151.5 61.2127527,151.388406 60.3706283,151.17171 C59.5138036,150.951231 58.6207223,150.594944 57.6891571,150.103974 C47.0575961,144.04619 38.0659535,138.700892 30.7143159,134.067937 C23.3888865,129.451498 17.5070361,124.975981 13.0711434,120.63848 C8.66833361,116.333328 5.47049623,111.677189 3.48279547,106.66673 C1.49146465,101.647121 0.5,95.7314545 0.5,88.9215292 L0.5,88.9215292 L0.5,31.2716298 C0.5,27.5182859 1.27002548,24.7792503 2.882834,23.0919653 C4.5227233,21.3763489 6.88724464,19.9035741 9.96575722,18.6613771 C11.7471132,17.9483415 14.1901196,16.9933934 17.2947685,15.7965123 C20.400569,14.5991872 23.8245876,13.2999642 27.5668226,11.8988391 C31.3088339,10.4977977 35.0508452,9.12222984 38.7928564,7.77213548 C42.5355127,6.4218084 45.9599156,5.19886953 49.0660657,4.10332115 C52.1677329,3.00935391 54.6091943,2.15677736 56.3906053,1.54567201 C57.3896258,1.24619129 58.4010826,0.996490104 59.4249755,0.796567844 C60.4376342,0.598839145 61.462644,0.5 62.5,0.5 Z" id="􀞚" stroke-opacity="0.26018903" stroke="#FFFFFF" fill="url(#linearGradient-1)"></path>
                        <g id="Combined-Shape">
                            <use fill="black" fill-opacity="1" filter="url(#filter-4)" xlink:href="#path-3"></use>
                            <path stroke-opacity="0.347437719" stroke="#FFFFFF" stroke-width="1" d="M62.461745,32.5 C68.7330914,32.5 73.8141455,34.6538381 77.6978614,38.9766178 C81.5006053,43.2092712 83.4369628,48.7731566 83.5337631,55.6567929 L83.5375839,56.2029795 L83.5375839,65.9187841 C85.9250679,65.9828797 87.7125836,66.7066964 88.8702932,68.141286 C89.9172168,69.4385939 90.445796,71.2927351 90.4960366,73.6864627 L90.5,74.0689013 L90.5,105.372439 C90.5,108.086929 89.8883134,110.138826 88.6081728,111.500651 C87.3952128,112.791009 85.5944704,113.439677 83.2313452,113.495981 L82.8899329,113.5 L42.033557,113.5 C39.5280862,113.5 37.6319244,112.852975 36.3743151,111.502378 C35.1635495,110.202088 34.5564501,108.272922 34.5037609,105.7386 L34.5,105.372439 L34.5,74.0689013 C34.5,71.4884441 35.0219659,69.5052544 36.1122673,68.1391827 C37.204831,66.7702765 38.8651692,66.0489173 41.0675897,65.9313406 L41.385906,65.9186465 L41.385906,56.2029795 C41.385906,49.0669145 43.3228125,43.3206568 47.2256285,38.9766178 C51.1093445,34.6538381 56.1903985,32.5 62.461745,32.5 Z M62.461745,39.4404097 C58.3252486,39.4404097 54.9879161,40.9146971 52.4436339,43.8503724 C49.9231405,46.7585993 48.6489933,50.5668731 48.6489933,55.2867784 L48.6489933,55.2867784 L48.6489933,65.8649907 L76.2744966,65.8649907 L76.2744966,55.2867784 L76.27,54.801847 C76.1860731,50.3061581 74.9276189,46.6597952 72.5198018,43.8523334 C70.0019747,40.9166023 66.6519652,39.4404097 62.461745,39.4404097 Z" stroke-linejoin="square" fill="url(#linearGradient-2)" fill-rule="evenodd"></path>
                        </g>
                    </g>
                </g>
            </g>
        </g>
    </g>
</svg>