<svg xmlns="http://www.w3.org/2000/svg" xmlns:xlink="http://www.w3.org/1999/xlink" width="32" height="32" version="1.1" viewBox="0 0 32 32"><title>􀁢</title><defs><linearGradient id="linearGradient-1" x1="-.912%" x2="100%" y1="0%" y2="85.342%"><stop offset="0%" stop-color="#672AF8"/><stop offset="100%" stop-color="#D23884"/></linearGradient></defs><g id="Gründe-für-Webflow" fill="none" fill-rule="evenodd" stroke="none" stroke-width="1"><g id="Desktop-HD-Copy-3" fill="url(#linearGradient-1)" fill-rule="nonzero" transform="translate(-375.000000, -2674.000000)"><g id="􀁢"><path d="M16,32 C18.1856209,32 20.2431373,31.5816993 22.172549,30.745098 C24.1019608,29.9084967 25.8039216,28.7529412 27.2784314,27.2784314 C28.7529412,25.8039216 29.9084967,24.1019608 30.745098,22.172549 C31.5816993,20.2431373 32,18.1856209 32,16 C32,13.8143791 31.5816993,11.7568627 30.745098,9.82745098 C29.9084967,7.89803922 28.7529412,6.19607843 27.2784314,4.72156863 C25.8039216,3.24705882 24.0993464,2.09150327 22.1647059,1.25490196 C20.2300654,0.418300654 18.1699346,0 15.9843137,0 C13.7986928,0 11.7411765,0.418300654 9.81176471,1.25490196 C7.88235294,2.09150327 6.18300654,3.24705882 4.71372549,4.72156863 C3.24444444,6.19607843 2.09150327,7.89803922 1.25490196,9.82745098 C0.418300654,11.7568627 0,13.8143791 0,16 C0,18.1856209 0.418300654,20.2431373 1.25490196,22.172549 C2.09150327,24.1019608 3.24705882,25.8039216 4.72156863,27.2784314 C6.19607843,28.7529412 7.89803922,29.9084967 9.82745098,30.745098 C11.7568627,31.5816993 13.8143791,32 16,32 Z M16,29.3333333 C14.1490196,29.3333333 12.4183007,28.9882353 10.8078431,28.2980392 C9.19738562,27.6078431 7.78300654,26.6535948 6.56470588,25.4352941 C5.34640523,24.2169935 4.39477124,22.8026144 3.70980392,21.1921569 C3.0248366,19.5816993 2.68235294,17.8509804 2.68235294,16 C2.68235294,14.1490196 3.0248366,12.4183007 3.70980392,10.8078431 C4.39477124,9.19738562 5.34379085,7.78039216 6.55686275,6.55686275 C7.76993464,5.33333333 9.18169935,4.37908497 10.7921569,3.69411765 C12.4026144,3.00915033 14.1333333,2.66666667 15.9843137,2.66666667 C17.8352941,2.66666667 19.5660131,3.00915033 21.1764706,3.69411765 C22.7869281,4.37908497 24.2039216,5.33333333 25.427451,6.55686275 C26.6509804,7.78039216 27.6078431,9.19738562 28.2980392,10.8078431 C28.9882353,12.4183007 29.3333333,14.1490196 29.3333333,16 C29.3333333,17.8509804 28.9908497,19.5816993 28.3058824,21.1921569 C27.620915,22.8026144 26.669281,24.2169935 25.4509804,25.4352941 C24.2326797,26.6535948 22.8156863,27.6078431 21.2,28.2980392 C19.5843137,28.9882353 17.8509804,29.3333333 16,29.3333333 Z M14.2745098,23.4352941 C14.8078431,23.4352941 15.2313725,23.1947712 15.545098,22.7137255 L22.7137255,11.4196078 C22.8078431,11.2732026 22.8941176,11.1137255 22.972549,10.9411765 C23.0509804,10.7686275 23.0901961,10.5934641 23.0901961,10.4156863 C23.0901961,10.0705882 22.9594771,9.79346405 22.6980392,9.58431373 C22.4366013,9.3751634 22.1437908,9.27058824 21.8196078,9.27058824 C21.3803922,9.27058824 21.0143791,9.50588235 20.7215686,9.97647059 L14.2117647,20.4235294 L11.1215686,16.4235294 C10.9333333,16.172549 10.7477124,16.0026144 10.5647059,15.9137255 C10.3816993,15.8248366 10.1803922,15.7803922 9.96078431,15.7803922 C9.62614379,15.7803922 9.34117647,15.903268 9.10588235,16.1490196 C8.87058824,16.3947712 8.75294118,16.6901961 8.75294118,17.0352941 C8.75294118,17.3594771 8.87320261,17.6836601 9.11372549,18.0078431 L12.9411765,22.7137255 C13.1398693,22.9647059 13.3464052,23.1477124 13.5607843,23.2627451 C13.7751634,23.3777778 14.0130719,23.4352941 14.2745098,23.4352941 Z" transform="translate(375.000000, 2674.000000)"/></g></g></g></svg>